<?xml version="1.0" encoding="UTF-8" standalone="no"?>
<!DOCTYPE svg PUBLIC "-//W3C//DTD SVG 1.1//EN" "http://www.w3.org/Graphics/SVG/1.1/DTD/svg11.dtd">
<svg version="1.1" xmlns="http://www.w3.org/2000/svg" xmlns:xlink="http://www.w3.org/1999/xlink" preserveAspectRatio="xMidYMid meet" viewBox="0 0 640 640" width="640" height="640"><defs><path d="" id="b17n98cAX3"></path><path d="M398.34 226.16C384.86 167.13 368.51 119.75 349.28 84.03C330.05 48.3 301.12 21.14 262.49 2.54L218.46 51.32C244.46 57.19 265.84 73.12 282.62 99.12C299.39 125.12 307.77 150.69 307.77 175.85C288.49 147.34 265.01 129.31 237.33 121.76C195.82 110.44 166.88 138.76 166.88 155.74C166.88 172.72 188.28 193.46 218.46 199.75C238.59 203.94 259.97 212.75 282.62 226.16L114.06 226.16L114.06 291.57L134.19 291.57L134.19 640L524.12 640L524.12 291.57L545.52 291.57L545.52 226.16L398.34 226.16Z" id="fh4YVcpqq"></path></defs><g><g><g><g><use xlink:href="#b17n98cAX3" opacity="1" fill-opacity="0" stroke="#000000" stroke-width="1" stroke-opacity="1"></use></g></g><g><use xlink:href="#fh4YVcpqq" opacity="1" fill="#60c861" fill-opacity="1"></use><g><use xlink:href="#fh4YVcpqq" opacity="1" fill-opacity="0" stroke="#000000" stroke-width="0" stroke-opacity="1"></use></g></g></g></g></svg>